<svg xmlns="http://www.w3.org/2000/svg" viewBox="0 0 168 120" width="168" height="120" role="img" aria-label="TG Logo Toni Gansel">
  <rect x="2" y="2" width="164" height="116" fill="#000000" stroke="#ff00ff" stroke-width="4"/>
  <rect x="18" y="18" width="12" height="12" fill="#ff00ff"/><rect x="30" y="18" width="12" height="12" fill="#ff00ff"/><rect x="42" y="18" width="12" height="12" fill="#ff00ff"/><rect x="54" y="18" width="12" height="12" fill="#ff00ff"/><rect x="66" y="18" width="12" height="12" fill="#ff00ff"/><rect x="42" y="30" width="12" height="12" fill="#ff00ff"/><rect x="42" y="42" width="12" height="12" fill="#ff00ff"/><rect x="42" y="54" width="12" height="12" fill="#ff00ff"/><rect x="42" y="66" width="12" height="12" fill="#ff00ff"/><rect x="42" y="78" width="12" height="12" fill="#ff00ff"/><rect x="42" y="90" width="12" height="12" fill="#ff00ff"/><rect x="102" y="18" width="12" height="12" fill="#ff00ff"/><rect x="114" y="18" width="12" height="12" fill="#ff00ff"/><rect x="126" y="18" width="12" height="12" fill="#ff00ff"/><rect x="90" y="30" width="12" height="12" fill="#ff00ff"/><rect x="138" y="30" width="12" height="12" fill="#ff00ff"/><rect x="90" y="42" width="12" height="12" fill="#ff00ff"/><rect x="90" y="54" width="12" height="12" fill="#ff00ff"/><rect x="114" y="54" width="12" height="12" fill="#ff00ff"/><rect x="126" y="54" width="12" height="12" fill="#ff00ff"/><rect x="138" y="54" width="12" height="12" fill="#ff00ff"/><rect x="90" y="66" width="12" height="12" fill="#ff00ff"/><rect x="138" y="66" width="12" height="12" fill="#ff00ff"/><rect x="90" y="78" width="12" height="12" fill="#ff00ff"/><rect x="138" y="78" width="12" height="12" fill="#ff00ff"/><rect x="102" y="90" width="12" height="12" fill="#ff00ff"/><rect x="114" y="90" width="12" height="12" fill="#ff00ff"/><rect x="126" y="90" width="12" height="12" fill="#ff00ff"/>
  <rect x="138" y="96" width="12" height="6" fill="#39ff14"/>
</svg>